# Blender v3.1.2 OBJ File: 'testobj.blend'
# www.blender.org
mtllib testobj.mtl
o Quad_Sphere
v -1.446708 -0.185812 1.360205
v -1.463950 -1.143756 1.323319
v -0.597861 -0.186923 1.318951
v -0.618131 -1.152429 1.283423
v -1.650253 -1.317305 1.315454
v -1.613394 -0.004718 1.379757
v -0.425545 -0.020045 1.321606
v -0.464910 -1.341027 1.256985
v -1.468609 -1.143013 1.319508
v -1.446034 -0.186121 1.361651
v -0.599609 -0.190983 1.320047
v -0.624654 -1.155582 1.279721
v -0.810088 -0.494031 1.766965
v -0.921876 -1.123027 1.973265
v -0.061670 -0.173276 1.967408
v -0.076007 -1.130355 1.932337
v -1.372943 -0.288608 0.095169
v -1.657751 0.023063 0.448188
v -1.396526 -0.959973 0.068280
v -1.697977 -1.288119 0.380819
v -0.797177 -0.285039 0.055605
v -0.454025 0.023595 0.356784
v -0.833455 -0.970689 0.027984
v -0.512636 -1.312002 0.318703
vt 0.564249 0.815839
vt 0.436324 0.934837
vt 0.435768 0.815178
vt 0.591043 0.286441
vt 0.408957 0.286441
vt 0.408957 0.286441
vt 0.875000 0.500000
vt 0.625000 0.686980
vt 0.625000 0.500000
vt 0.375000 0.063021
vt 0.625000 0.250000
vt 0.375000 0.250000
vt 0.375000 0.688416
vt 0.375000 0.500000
vt 0.408957 0.286441
vt 0.591043 0.286441
vt 0.408957 0.463559
vt 0.591043 0.463558
vt 0.408957 0.463559
vt 0.591043 0.463558
vt 0.591043 0.463558
vt 0.408957 0.463559
vt 0.591043 0.286441
vt 0.563689 0.934172
vt 0.375000 1.000000
vt 0.625000 0.750000
vt 0.125000 0.686979
vt 0.125000 0.500000
vt 0.875000 0.686980
vt 0.625000 0.063020
vt 0.625000 1.000000
vt 0.375000 0.753030
vn -0.0688 0.0438 -0.9967
vn -0.5460 -0.0224 0.8375
vn -0.0215 -0.9993 -0.0298
vn -0.9985 0.0257 0.0483
vn 0.9991 -0.0283 -0.0308
vn 0.0204 -0.0445 0.9988
vn 0.0487 -0.0546 0.9973
vn 0.0457 -0.0827 0.9955
vn 0.0329 -0.0426 0.9986
vn -0.6348 -0.0190 0.7724
vn -0.0112 -0.9790 -0.2037
vn 0.0215 -0.7796 0.6259
vn -0.5988 0.0420 -0.7998
vn -0.2458 -0.0318 0.9688
vn 0.7673 0.0075 -0.6413
vn -0.4468 0.8224 0.3521
vn -0.0084 -0.9992 0.0389
vn -0.7540 0.0527 -0.6548
vn 0.6683 -0.0054 -0.7439
vn -0.0515 0.7277 -0.6840
vn -0.0651 -0.6818 -0.7286
vn 0.0143 0.9995 0.0291
vn -0.0705 0.0424 -0.9966
vn -0.7310 0.3265 0.5992
vn -0.0217 -0.9993 -0.0301
vn -0.9983 0.0280 0.0518
vn 0.9977 -0.0423 -0.0521
vn 0.0533 -0.0504 0.9973
vn 0.0481 -0.0580 0.9972
vn 0.0477 -0.0729 0.9962
vn 0.0823 -0.0511 0.9953
vn 0.9066 -0.0001 -0.4221
vn -0.0490 -0.2406 -0.9694
vn -0.0225 -0.9861 -0.1649
vn 0.4847 0.0240 -0.8744
vn 0.0487 0.3035 0.9516
vn 0.7705 0.0118 -0.6373
vn 0.0290 0.8180 0.5745
vn -0.0067 -0.9992 0.0396
vn -0.7478 0.0569 -0.6615
vn 0.6636 -0.0078 -0.7481
vn -0.0523 0.7267 -0.6850
vn -0.0525 -0.6630 -0.7468
vn 0.0030 0.9990 0.0451
usemtl Material
s off
f 23/1/1 17/2/1 21/3/1
f 2/4/2 13/5/2 1/6/2
f 5/7/3 24/8/3 8/9/3
f 18/10/4 5/11/4 6/12/4
f 8/9/5 22/13/5 7/14/5
f 10/15/6 5/11/6 9/16/6
f 11/17/7 6/12/7 10/15/7
f 9/16/8 8/9/8 12/18/8
f 12/18/9 7/14/9 11/17/9
f 2/4/10 10/15/10 9/16/10
f 3/19/11 10/15/11 1/6/11
f 2/4/12 12/18/12 4/20/12
f 4/20/13 11/17/13 3/19/13
f 13/5/14 16/21/14 15/22/14
f 3/19/15 16/21/15 4/20/15
f 3/19/16 13/5/16 15/22/16
f 4/20/17 14/23/17 2/4/17
f 19/24/18 18/25/18 17/2/18
f 21/3/19 24/8/19 23/1/19
f 18/25/20 21/3/20 17/2/20
f 24/26/21 19/24/21 23/1/21
f 7/14/22 18/27/22 6/28/22
f 23/1/23 19/24/23 17/2/23
f 2/4/24 14/23/24 13/5/24
f 5/7/25 20/29/25 24/8/25
f 18/10/26 20/30/26 5/11/26
f 8/9/27 24/8/27 22/13/27
f 10/15/28 6/12/28 5/11/28
f 11/17/29 7/14/29 6/12/29
f 9/16/30 5/11/30 8/9/30
f 12/18/31 8/9/31 7/14/31
f 2/4/32 1/6/32 10/15/32
f 3/19/33 11/17/33 10/15/33
f 2/4/34 9/16/34 12/18/34
f 4/20/35 12/18/35 11/17/35
f 13/5/36 14/23/36 16/21/36
f 3/19/37 15/22/37 16/21/37
f 3/19/38 1/6/38 13/5/38
f 4/20/39 16/21/39 14/23/39
f 19/24/40 20/31/40 18/25/40
f 21/3/41 22/13/41 24/8/41
f 18/25/42 22/32/42 21/3/42
f 24/26/43 20/31/43 19/24/43
f 7/14/44 22/13/44 18/27/44
